<svg id="Component_23_1" data-name="Component 23 – 1" xmlns="http://www.w3.org/2000/svg" width="19" height="19.5" viewBox="0 0 19 19.5">
  <g id="Group_1316" data-name="Group 1316" transform="translate(-374 -1237)">
    <g id="Polygon_2" data-name="Polygon 2" transform="translate(374 1237)" fill="#549848" stroke-linecap="round">
      <path d="M 8.711550712585449 8.316328048706055 L 0.DELETED_CREDIT_CARD 8.316328048706055 L 4.775510787963867 1.049797654151917 L 8.711541175842285 8.316328048706055 L 8.711550712585449 8.316328048706055 Z" stroke="none"/>
      <path d="M 4.775508880615234 2.099586486816406 L 1.678950786590576 7.816327571868896 L 7.872075080871582 7.816327571868896 L 4.775508880615234 2.099586486816406 M 4.775510787963867 0.DELETED_CREDIT_CARD C 4.948055744171143 0.DELETED_CREDIT_CARD 5.120600700378418 0.DELETED_CREDIT_CARD 5.215160846710205 0.DELETED_CREDIT_CARD L 9.151190757751465 8.078187942504883 C 9.331650733947754 8.411337852478027 9.090431213378906 8.816328048706055 8.711550712585449 8.816328048706055 L 0.DELETED_CREDIT_CARD 8.816328048706055 C 0.DELETED_CREDIT_CARD 8.816328048706055 0.DELETED_CREDIT_CARD 8.411337852478027 0.DELETED_CREDIT_CARD 8.078187942504883 L 4.335860729217529 0.DELETED_CREDIT_CARD C 4.430420875549316 0.DELETED_CREDIT_CARD 4.602965831756592 0.DELETED_CREDIT_CARD 4.775510787963867 0.DELETED_CREDIT_CARD Z" stroke="none" fill="#529948"/>
    </g>
    <line id="Line_9" data-name="Line 9" y2="11.755" transform="translate(378.776 1243.245)" fill="none" stroke="#549848" stroke-linecap="round" stroke-width="3"/>
  </g>
  <g id="Group_1317" data-name="Group 1317" transform="translate(393 1256.5) rotate(180)">
    <g id="Polygon_2-2" data-name="Polygon 2" transform="translate(374 1237)" fill="red" stroke-linecap="round">
      <path d="M 8.711550712585449 8.316328048706055 L 0.DELETED_CREDIT_CARD 8.316328048706055 L 4.775510787963867 1.049797654151917 L 8.711541175842285 8.316328048706055 L 8.711550712585449 8.316328048706055 Z" stroke="none"/>
      <path d="M 4.775508880615234 2.099586486816406 L 1.678950786590576 7.816327571868896 L 7.872075080871582 7.816327571868896 L 4.775508880615234 2.099586486816406 M 4.775510787963867 0.DELETED_CREDIT_CARD C 4.948055744171143 0.DELETED_CREDIT_CARD 5.120600700378418 0.DELETED_CREDIT_CARD 5.215160846710205 0.DELETED_CREDIT_CARD L 9.151190757751465 8.078187942504883 C 9.331650733947754 8.411337852478027 9.090431213378906 8.816328048706055 8.711550712585449 8.816328048706055 L 0.DELETED_CREDIT_CARD 8.816328048706055 C 0.DELETED_CREDIT_CARD 8.816328048706055 0.DELETED_CREDIT_CARD 8.411337852478027 0.DELETED_CREDIT_CARD 8.078187942504883 L 4.335860729217529 0.DELETED_CREDIT_CARD C 4.430420875549316 0.DELETED_CREDIT_CARD 4.602965831756592 0.DELETED_CREDIT_CARD 4.775510787963867 0.DELETED_CREDIT_CARD Z" stroke="none" fill="red"/>
    </g>
    <line id="Line_9-2" data-name="Line 9" y2="11.755" transform="translate(378.776 1243.245)" fill="none" stroke="red" stroke-linecap="round" stroke-width="3"/>
  </g>
</svg>
