<svg xmlns="http://www.w3.org/2000/svg" xmlns:xlink="http://www.w3.org/1999/xlink" width="18" height="22" viewBox="0 0 18 22">
  <defs>
    <filter id="Path_25" x="0" y="0" width="18" height="22" filterUnits="userSpaceOnUse">
      <feOffset dy="0.25" input="SourceAlpha"/>
      <feGaussianBlur stdDeviation="1" result="blur"/>
      <feFlood flood-opacity="0.678"/>
      <feComposite operator="in" in2="blur"/>
      <feComposite in="SourceGraphic"/>
    </filter>
  </defs>
  <g transform="matrix(1, 0, 0, 1, 0, 0)" filter="url(#Path_25)">
    <path id="Path_25-2" data-name="Path 25" d="M6.3,16.8v-.035c.462-2.22,2.038-4.405,4.192-6.555l.269-.247.115-.106A5.189,5.189,0,0,0,12.3,6.3,5.773,5.773,0,0,0,6.3.8h0a5.773,5.773,0,0,0-6,5.5A5.189,5.189,0,0,0,1.723,9.857l.115.106a1.71,1.71,0,0,0,.269.247c2.154,2.15,3.731,4.335,4.192,6.555V16.8m0-8.141A2.476,2.476,0,0,1,3.723,6.3,2.476,2.476,0,0,1,6.3,3.937,2.476,2.476,0,0,1,8.877,6.3,2.476,2.476,0,0,1,6.3,8.659Z" transform="translate(2.7 1.95)" fill="#8e7bc4"/>
  </g>
</svg>
