<svg xmlns="http://www.w3.org/2000/svg" width="5.265" height="18.526" viewBox="0 0 5.265 18.526">
  <g id="Group_76" data-name="Group 76" transform="translate(-288 -1139.666)">
    <rect id="Rectangle_85" data-name="Rectangle 85" width="1.435" height="1.435" transform="translate(288 1143.717)" fill="#674ea7"/>
    <rect id="Rectangle_86" data-name="Rectangle 86" width="1.435" height="1.435" transform="translate(288 1147.443)" fill="#674ea7"/>
    <rect id="Rectangle_87" data-name="Rectangle 87" width="1.435" height="1.435" transform="translate(288 1149.306)" fill="#674ea7"/>
    <rect id="Rectangle_88" data-name="Rectangle 88" width="1.435" height="1.435" transform="translate(288 1151.168)" fill="#674ea7"/>
    <rect id="Rectangle_89" data-name="Rectangle 89" width="1.435" height="1.435" transform="translate(289.915 1143.717)" fill="#674ea7"/>
    <rect id="Rectangle_90" data-name="Rectangle 90" width="1.435" height="1.435" transform="translate(289.915 1145.579)" fill="#674ea7"/>
    <rect id="Rectangle_91" data-name="Rectangle 91" width="1.435" height="1.435" transform="translate(289.915 1147.443)" fill="#674ea7"/>
    <rect id="Rectangle_92" data-name="Rectangle 92" width="1.435" height="1.435" transform="translate(289.915 1149.306)" fill="#674ea7"/>
    <rect id="Rectangle_93" data-name="Rectangle 93" width="1.435" height="1.435" transform="translate(291.83 1143.717)" fill="#674ea7"/>
    <rect id="Rectangle_94" data-name="Rectangle 94" width="1.435" height="1.435" transform="translate(291.83 1147.443)" fill="#674ea7"/>
    <rect id="Rectangle_95" data-name="Rectangle 95" width="1.435" height="1.435" transform="translate(291.83 1151.168)" fill="#674ea7"/>
    <rect id="Rectangle_96" data-name="Rectangle 96" width="1.435" height="1.435" transform="translate(289.915 1153.032)" fill="#674ea7"/>
    <rect id="Rectangle_97" data-name="Rectangle 97" width="1.435" height="1.435" transform="translate(291.83 1153.032)" fill="#674ea7"/>
    <rect id="Rectangle_98" data-name="Rectangle 98" width="1.435" height="1.435" transform="translate(291.83 1154.896)" fill="#674ea7"/>
    <rect id="Rectangle_99" data-name="Rectangle 99" width="1.435" height="1.435" transform="translate(291.83 1156.757)" fill="#674ea7"/>
    <rect id="Rectangle_100" data-name="Rectangle 100" width="1.435" height="1.435" transform="translate(288 1154.896)" fill="#674ea7"/>
    <rect id="Rectangle_101" data-name="Rectangle 101" width="5.263" height="2.932" transform="translate(288 1139.666)" fill="#674ea7"/>
  </g>
</svg>
