<svg xmlns="http://www.w3.org/2000/svg" width="16" height="16" viewBox="0 0 16 16">
  <g id="Group_886" data-name="Group 886" transform="translate(-4015 -5825)">
    <g id="Group_1209" data-name="Group 1209" transform="translate(-2 -1)">
      <rect id="Rectangle_1201" data-name="Rectangle 1201" width="16" height="16" transform="translate(4017 5826)" fill="#fff" opacity="0"/>
      <g id="fountain" transform="translate(3981.044 5828)">
        <g id="Group_885" data-name="Group 885" transform="translate(38.956)">
          <path id="Path_3974" data-name="Path 3974" d="M48.571,3.913H45.044a1.187,1.187,0,0,0,.066-.391,1.175,1.175,0,0,0-.769-1.107v-.85a.769.769,0,1,1,1.538,0,.385.385,0,1,0,.769,0A1.554,1.554,0,0,0,45.11,0a1.524,1.524,0,0,0-1.154.531A1.524,1.524,0,0,0,42.8,0a1.554,1.554,0,0,0-1.538,1.565.385.385,0,1,0,.769,0,.769.769,0,1,1,1.538,0v.85a1.182,1.182,0,0,0-.7,1.5H39.341a.391.391,0,0,0,0,.783h.4A4.33,4.33,0,0,0,40.068,6a.4.4,0,0,0,.024.055,4.273,4.273,0,0,0,2.71,2.39V9.652H40.879a1.165,1.165,0,0,0-1.154,1.174v.783A.388.388,0,0,0,40.11,12H47.8a.388.388,0,0,0,.385-.391v-.783a1.165,1.165,0,0,0-1.154-1.174H45.11V8.446a4.273,4.273,0,0,0,2.71-2.39A.4.4,0,0,0,47.844,6,4.331,4.331,0,0,0,48.169,4.7h.4a.391.391,0,0,0,0-.783ZM43.956,3.13a.391.391,0,1,1-.385.391A.388.388,0,0,1,43.956,3.13Zm3.077,7.3a.388.388,0,0,1,.385.391v.391H40.494v-.391a.388.388,0,0,1,.385-.391Zm-3.462-.783V8.591c.127.012.255.018.385.018s.258-.006.385-.018V9.652Zm.385-1.826a3.448,3.448,0,0,1-2.877-1.568h5.754A3.448,3.448,0,0,1,43.956,7.826ZM47.22,5.478H40.692a3.569,3.569,0,0,1-.177-.785H47.4A3.568,3.568,0,0,1,47.22,5.478Z" transform="translate(-38.956 0)"/>
        </g>
      </g>
    </g>
  </g>
</svg>
