<svg xmlns="http://www.w3.org/2000/svg" xmlns:xlink="http://www.w3.org/1999/xlink" width="24" height="26" viewBox="0 0 24 26">
  <defs>
    <linearGradient id="linear-gradient" x1="0.5" x2="0.5" y2="1" gradientUnits="objectBoundingBox">
      <stop offset="0" stop-color="#6645a5"/>
      <stop offset="1" stop-color="#332353"/>
    </linearGradient>
    <filter id="Path_25" x="2" y="0" width="20" height="26" filterUnits="userSpaceOnUse">
      <feOffset dy="0.25" input="SourceAlpha"/>
      <feGaussianBlur stdDeviation="1" result="blur"/>
      <feFlood flood-opacity="0.678"/>
      <feComposite operator="in" in2="blur"/>
      <feComposite in="SourceGraphic"/>
    </filter>
  </defs>
  <g id="Group_117" data-name="Group 117" transform="translate(-1017 -309.25)">
    <rect id="Rectangle_181" data-name="Rectangle 181" width="24" height="24" transform="translate(1017 310)" fill="#fff" opacity="0"/>
    <g id="map-pin-Insemble-alt" transform="translate(1022 312)">
      <path id="Path_24" data-name="Path 24" d="M7.3,20.8v-.044c.538-2.775,2.378-5.507,4.891-8.194l.314-.308.135-.132A6.74,6.74,0,0,0,14.3,7.672,6.946,6.946,0,0,0,7.3.8h0a6.946,6.946,0,0,0-7,6.872,6.74,6.74,0,0,0,1.66,4.449l.135.132a2.054,2.054,0,0,0,.314.308c2.513,2.687,4.353,5.419,4.891,8.194V20.8" transform="translate(-0.3 -0.8)" fill="#fff"/>
      <g transform="matrix(1, 0, 0, 1, -5, -2.75)" filter="url(#Path_25)">
        <path id="Path_25-2" data-name="Path 25" d="M7.3,20.8v-.044c.538-2.775,2.378-5.507,4.891-8.194l.314-.308.135-.132A6.74,6.74,0,0,0,14.3,7.672,6.946,6.946,0,0,0,7.3.8h0a6.946,6.946,0,0,0-7,6.872,6.74,6.74,0,0,0,1.66,4.449l.135.132a2.054,2.054,0,0,0,.314.308c2.513,2.687,4.353,5.419,4.891,8.194V20.8m0-10.176a2.952,2.952,0,1,1,3.006-2.952A2.98,2.98,0,0,1,7.3,10.624Z" transform="translate(4.7 1.95)" fill="url(#linear-gradient)"/>
      </g>
    </g>
  </g>
</svg>
