<svg xmlns="http://www.w3.org/2000/svg" xmlns:xlink="http://www.w3.org/1999/xlink" width="25.124" height="32.172" viewBox="0 0 25.124 32.172">
  <defs>
    <linearGradient id="linear-gradient" x1="0.5" x2="0.5" y2="1" gradientUnits="objectBoundingBox">
      <stop offset="0" stop-color="#6645a5"/>
      <stop offset="1" stop-color="#332353"/>
    </linearGradient>
    <filter id="Path_25" x="0" y="0" width="25.124" height="32.172" filterUnits="userSpaceOnUse">
      <feOffset dy="0.25" input="SourceAlpha"/>
      <feGaussianBlur stdDeviation="1" result="blur"/>
      <feFlood flood-opacity="0.678"/>
      <feComposite operator="in" in2="blur"/>
      <feComposite in="SourceGraphic"/>
    </filter>
  </defs>
  <g id="map-pin-Insemble-alt" transform="translate(3 2.75)">
    <path id="Path_24" data-name="Path 24" d="M9.862,26.972v-.058c.736-3.632,3.249-7.206,6.681-10.723l.429-.4.184-.173a8.609,8.609,0,0,0,2.268-5.822C19.424,4.835,15.134.8,9.862.8h0C4.591.8.3,4.835.3,9.793a8.609,8.609,0,0,0,2.268,5.822l.184.173a2.753,2.753,0,0,0,.429.4c3.433,3.517,5.946,7.091,6.681,10.723v.058" transform="translate(-0.3 -0.8)" fill="#fff"/>
    <g transform="matrix(1, 0, 0, 1, -3, -2.75)" filter="url(#Path_25)">
      <path id="Path_25-2" data-name="Path 25" d="M9.862,26.972v-.058c.736-3.632,3.249-7.206,6.681-10.723l.429-.4.184-.173a8.609,8.609,0,0,0,2.268-5.822C19.424,4.835,15.134.8,9.862.8h0C4.591.8.3,4.835.3,9.793a8.609,8.609,0,0,0,2.268,5.822l.184.173a2.753,2.753,0,0,0,.429.4c3.433,3.517,5.946,7.091,6.681,10.723v.058m0-13.317A3.99,3.99,0,0,1,5.755,9.793,3.99,3.99,0,0,1,9.862,5.931a3.99,3.99,0,0,1,4.107,3.862A3.99,3.99,0,0,1,9.862,13.656Z" transform="translate(2.7 1.95)" fill="url(#linear-gradient)"/>
    </g>
  </g>
</svg>
